# xmcd
#
# Track frame offsets:
# 150
# 14499
# 32939
# 52471
# 70544
# 94528
# 107851
# 125843
# 146878
# 170613
#
# Disc length: 2640 seconds
#
#
# Revision: 0
# Processed by: cddbd v1.4PL0 Copyright (c) Steve Scherf et al.
# Submitted via: FreeRIP 2.00 
#
DISCID=980a4e0a
DTITLE=Travis Tritt - Country Club
DYEAR=1990
DGENRE=Country
TTITLE0=Country Club
TTITLE1=I'm Gonna Be Somebody
TTITLE2=Put Some Drive In Your Country
TTITLE3=Help Me Hold On
TTITLE4=Sign Of The Times
TTITLE5=Son Of The New South
TTITLE6=If I Were A Drinker
TTITLE7=Road Home
TTITLE8=Drift Off To Dream
TTITLE9=Dixie Flyer
EXTD=Warner Brothers
EXTT0=
EXTT1=
EXTT2=
EXTT3=
EXTT4=
EXTT5=
EXTT6=
EXTT7=
EXTT8=
EXTT9=
PLAYORDER=
